<?xml version="1.0" standalone="no"?>
<!DOCTYPE svg PUBLIC "-//W3C//DTD SVG 20010904//EN"
 "http://www.w3.org/TR/2001/REC-SVG-20010904/DTD/svg10.dtd">
<svg version="1.0" xmlns="http://www.w3.org/2000/svg"
 width="1118.000000pt" height="1280.000000pt" viewBox="0 0 1118.000000 1280.000000"
 preserveAspectRatio="xMidYMid meet">
<metadata>
Created by potrace 1.15, written by Peter Selinger 2001-2017
</metadata>
<g transform="translate(0.000000,1280.000000) scale(0.100000,-0.100000)"
fill="#f44336" stroke="none">
<path d="M5505 12787 c-56 -19 -81 -33 -127 -75 -55 -50 -85 -100 -104 -174
-27 -104 1 -217 76 -301 l32 -37 -78 -1 c-225 -2 -384 -14 -399 -30 -21 -21
-55 -312 -54 -464 1 -232 -61 -391 -211 -547 l-75 -78 -103 -20 c-377 -73
-817 -217 -1212 -398 -807 -368 -1521 -935 -2075 -1647 -585 -752 -974 -1661
-1114 -2605 -45 -305 -55 -451 -55 -820 0 -429 25 -697 100 -1075 145 -734
418 -1397 836 -2030 202 -306 407 -555 692 -841 425 -424 861 -744 1388 -1019
633 -329 1286 -521 2048 -601 205 -22 797 -25 990 -6 1002 102 1852 402 2659
940 302 202 533 393 822 681 448 449 781 913 1064 1486 303 615 469 1193 551
1920 25 218 25 826 0 1055 -34 315 -78 576 -137 815 -315 1261 -1011 2325
-2039 3116 -275 211 -568 393 -910 563 -427 212 -823 352 -1294 455 -134 30
-188 47 -217 66 -48 34 -151 138 -185 189 -35 51 -78 149 -93 211 -12 49 -16
208 -6 224 8 14 -22 377 -34 399 -14 26 -28 28 -251 43 l-185 12 39 40 c127
132 120 346 -16 473 -27 25 -69 54 -94 66 -58 25 -175 33 -229 15z m163 -143
c94 -39 142 -128 121 -224 -20 -91 -95 -150 -189 -150 -112 0 -193 82 -193
195 0 134 139 230 261 179z"/>
</g>
</svg>
